<?xml version="1.0" encoding="utf-8"?>
<!-- Generator: Adobe Illustrator 16.0.3, SVG Export Plug-In . SVG Version: 6.00 Build 0)  -->
<!DOCTYPE svg PUBLIC "-//W3C//DTD SVG 1.1//EN" "http://www.w3.org/Graphics/SVG/1.1/DTD/svg11.dtd">
<svg version="1.1" id="smarpay" xmlns="http://www.w3.org/2000/svg" xmlns:xlink="http://www.w3.org/1999/xlink" x="0px" y="0px"
	 width="255px" height="87.333px" viewBox="0 0 255 87.333" enable-background="new 0 0 255 87.333" xml:space="preserve">
<path d="M68.7,61.508c1.027,0.648,2.973,1.404,4.756,1.404c1.838,0,2.865-0.811,2.865-2.379c0-1.35-0.758-2.215-3.081-3.566
	c-4.323-2.432-5.351-5.188-5.351-7.621c0-4.756,3.404-8.322,8.701-8.322c2.216,0,3.945,0.541,5.351,1.189L80.698,47.4
	c-1.027-0.594-2.27-1.08-3.675-1.08c-1.784,0-2.648,1.08-2.648,2.27s0.595,1.838,3.081,3.297c3.891,2.217,5.35,4.973,5.35,7.998
	c0,5.406-3.891,8.324-9.35,8.324c-2.216,0-4.811-0.594-6.053-1.514L68.7,61.508z"/>
<path d="M86.427,49.4c0-2.918-0.162-5.459-0.217-7.945h6.161l0.324,3.082h0.108c1.352-2,3.566-3.514,6.323-3.514
	c2.973,0,4.864,1.352,5.783,3.566h0.108c0.648-1.025,1.621-2,2.648-2.648c1.08-0.594,2.377-0.918,3.729-0.918
	c4.702,0,6.811,3.729,6.811,10.107v16.754h-7.027V52.318c0-3.025-0.324-5.457-2.485-5.457c-1.243,0-2.162,0.863-2.648,2.432
	c-0.108,0.377-0.216,1.135-0.216,1.838v16.754h-7.026V51.293c0-1.893-0.216-4.432-2.433-4.432c-1.08,0-2.161,0.811-2.648,2.377
	c-0.162,0.486-0.27,1.244-0.27,2v16.646h-7.025V49.4z"/>
<path d="M135.013,67.885l-0.379-2.594h-0.107c-1.46,2.053-3.514,3.025-5.838,3.025c-3.999,0-6.972-3.35-6.972-8.053
	c0-6.918,6.107-9.781,12.106-9.836v-0.596c0-2.053-1.243-3.566-3.729-3.566c-2.108,0-3.838,0.541-5.405,1.514l-1.298-4.756
	c1.46-0.865,4.541-2,8.216-2c8.053,0,9.351,5.621,9.351,10.971v9.838c0,2.107,0.107,4.27,0.432,6.053H135.013z M134.04,55.021
	c-2.379,0.055-5.621,0.811-5.621,4.486c0,2.648,1.459,3.621,2.54,3.621c1.135,0,2.433-0.703,2.919-2.27
	c0.107-0.379,0.162-0.813,0.162-1.244V55.021z"/>
<path d="M145.929,49.4c0-2.648-0.107-5.512-0.217-7.945h6.162l0.377,3.838h0.162c1.189-2.811,3.297-4.27,5.244-4.27
	c0.701,0,1.08,0,1.512,0.107v7.027c-0.432-0.109-0.918-0.109-1.512-0.109c-1.514,0-3.514,1.027-4.324,3.783
	c-0.162,0.596-0.27,1.514-0.27,2.648v13.404h-7.135V49.4z"/>
<path fill="#F68B1F" d="M161.817,49.832c0-3.188-0.107-5.891-0.217-8.377h6.162l0.377,3.027h0.109
	c1.08-2.162,3.08-3.459,5.512-3.459c5.838,0,8.215,6.27,8.215,13.619c0,9.404-4.16,13.674-8.592,13.674
	c-2.162,0-3.621-1.352-4.379-2.594h-0.107v12.539h-7.08V49.832z M168.897,58.211c0,0.918,0.107,1.729,0.379,2.27
	c0.539,1.621,1.459,2.053,2.27,2.053c2.486,0,3.35-3.674,3.35-7.836c0-5.027-1.188-7.729-3.297-7.729
	c-1.08,0-2.107,1.027-2.377,2.27c-0.27,0.541-0.324,1.244-0.324,1.893V58.211z"/>
<path fill="#F68B1F" d="M197.864,67.885l-0.377-2.594h-0.109c-1.459,2.053-3.512,3.025-5.836,3.025c-4,0-6.973-3.35-6.973-8.053
	c0-6.918,6.107-9.781,12.107-9.836v-0.596c0-2.053-1.244-3.566-3.73-3.566c-2.107,0-3.836,0.541-5.404,1.514l-1.297-4.756
	c1.459-0.865,4.539-2,8.215-2c8.053,0,9.35,5.621,9.35,10.971v9.838c0,2.107,0.109,4.27,0.434,6.053H197.864z M196.892,55.021
	c-2.377,0.055-5.621,0.811-5.621,4.486c0,2.648,1.461,3.621,2.541,3.621c1.135,0,2.432-0.703,2.918-2.27
	c0.109-0.379,0.162-0.813,0.162-1.244V55.021z"/>
<path fill="#F68B1F" d="M213.483,41.455l2.594,13.729c0.271,1.566,0.488,3.027,0.703,4.432h0.109
	c0.215-1.352,0.432-2.865,0.648-4.324l2.215-13.836h6.918l-5.404,20.377c-1.297,4.971-3.027,10.105-5.891,13.512
	c-2.217,2.594-4.918,3.836-6,4.16l-2.162-6.107c1.244-0.432,2.434-1.242,3.514-2.215c0.973-0.92,1.729-2,2.217-3.135
	c0.215-0.486,0.377-0.758,0.377-1.135c0-0.324-0.107-0.648-0.215-0.973l-7.244-24.484H213.483z"/>
<g>
	<path fill="#F68B1F" d="M46.346,29.555c0.497,0.412,1.226,0.378,1.683-0.078c0.709-0.71,1.42-1.421,2.131-2.132
		c0.516-0.514,0.483-1.361-0.071-1.835c-6.571-5.63-16.264-5.63-22.834,0c-0.555,0.474-0.587,1.321-0.072,1.835
		c0.712,0.711,1.422,1.422,2.132,2.132c0.456,0.456,1.185,0.49,1.682,0.078C35.449,25.87,41.893,25.87,46.346,29.555z"/>
	<path fill="#F68B1F" d="M55.831,21.672c-0.471,0.472-1.228,0.491-1.722,0.045c-8.772-7.911-22.106-7.911-30.878,0
		c-0.493,0.446-1.252,0.427-1.722-0.045c-0.709-0.708-1.418-1.416-2.125-2.125c-0.505-0.504-0.485-1.329,0.039-1.81
		c10.903-9.946,27.589-9.946,38.492,0c0.526,0.48,0.546,1.306,0.041,1.81C57.249,20.256,56.54,20.964,55.831,21.672z"/>
	<path fill="#F68B1F" d="M51.774,42.694c-1.074-1.075-2.815-1.075-3.891,0s-1.075,2.817,0,3.893
		c2.655,2.655,5.311,5.312,7.967,7.967c0.403,0.402,0.403,1.057,0,1.46c-5.484,5.483-10.967,10.967-16.449,16.451
		c-0.404,0.401-1.058,0.401-1.46,0c-5.484-5.484-10.968-10.968-16.452-16.451c-0.401-0.403-0.401-1.058,0-1.46
		c2.665-2.646,5.33-5.29,7.995-7.937c1.082-1.083,1.082-2.837,0-3.921c-1.083-1.082-2.839-1.082-3.921,0
		c-2.655,2.655-5.311,5.31-7.966,7.964c-2.552,2.555-2.552,6.693,0,9.246c5.483,5.482,10.968,10.967,16.45,16.45
		c2.553,2.552,6.692,2.552,9.245,0c5.483-5.483,10.967-10.968,16.45-16.45c2.552-2.553,2.552-6.691,0-9.246
		C57.087,48.006,54.431,45.351,51.774,42.694z"/>
	<circle fill="#F68B1F" cx="38.671" cy="38.833" r="6.537"/>
</g>
<g>
	<path d="M232.839,42.958V37.87h2.162c0.544,0,0.938,0.046,1.186,0.137c0.246,0.092,0.443,0.254,0.592,0.488
		c0.147,0.233,0.222,0.5,0.222,0.801c0,0.383-0.112,0.697-0.337,0.946c-0.224,0.249-0.56,0.405-1.006,0.47
		c0.222,0.131,0.405,0.272,0.55,0.428c0.145,0.154,0.34,0.43,0.585,0.826l0.621,0.992h-1.229l-0.743-1.107
		c-0.264-0.396-0.443-0.645-0.541-0.748c-0.097-0.103-0.2-0.173-0.309-0.211c-0.109-0.039-0.281-0.058-0.518-0.058h-0.208v2.124
		H232.839z M233.866,40.022h0.76c0.493,0,0.801-0.021,0.924-0.063c0.122-0.042,0.219-0.113,0.288-0.216
		c0.069-0.102,0.104-0.229,0.104-0.382c0-0.171-0.046-0.309-0.137-0.414c-0.092-0.105-0.221-0.172-0.387-0.2
		c-0.084-0.011-0.334-0.017-0.75-0.017h-0.802V40.022z"/>
</g>
<path d="M234.767,35.1c-2.935,0-5.313,2.379-5.313,5.313s2.379,5.313,5.313,5.313s5.313-2.378,5.313-5.313
	S237.701,35.1,234.767,35.1z M234.767,44.965c-2.514,0-4.552-2.037-4.552-4.552s2.038-4.552,4.552-4.552s4.552,2.037,4.552,4.552
	S237.28,44.965,234.767,44.965z"/>
</svg>
